<svg xmlns="http://www.w3.org/2000/svg" width="48" height="48" viewBox="0 0 48 48">
  <g id="Group_4083" data-name="Group 4083" transform="translate(-336 -7840)">
    <g id="Group_4079" data-name="Group 4079">
      <circle id="Ellipse_44" data-name="Ellipse 44" cx="24" cy="24" r="24" transform="translate(336 7840)" fill="#fff"/>
    </g>
    <path id="Icon_awesome-linkedin-in" data-name="Icon awesome-linkedin-in" d="M3.358,15H.248V4.986h3.11ZM1.8,3.62A1.81,1.81,0,1,1,3.6,1.8,1.816,1.816,0,0,1,1.8,3.62ZM15,15h-3.1V10.125c0-1.162-.023-2.652-1.617-2.652-1.617,0-1.865,1.262-1.865,2.568V15H5.306V4.986H8.288V6.352h.044a3.268,3.268,0,0,1,2.942-1.617C14.421,4.735,15,6.807,15,9.5V15Z" transform="translate(352.5 7856)" fill="#000"/>
  </g>
</svg>
