<svg xmlns="http://www.w3.org/2000/svg" width="48" height="48" viewBox="0 0 48 48">
  <g id="Group_4080" data-name="Group 4080" transform="translate(-404 -7840)">
    <circle id="Ellipse_45" data-name="Ellipse 45" cx="24" cy="24" r="24" transform="translate(404 7840)" fill="#fff"/>
    <path id="Icon_ionic-logo-twitter" data-name="Icon ionic-logo-twitter" d="M19.847,6.277a7.646,7.646,0,0,1-2.172.6,3.8,3.8,0,0,0,1.664-2.094,7.515,7.515,0,0,1-2.4.918,3.781,3.781,0,0,0-6.543,2.586,3.7,3.7,0,0,0,.1.863,10.718,10.718,0,0,1-7.8-3.957A3.789,3.789,0,0,0,3.87,10.246a3.694,3.694,0,0,1-1.719-.473V9.82a3.785,3.785,0,0,0,3.035,3.711,3.807,3.807,0,0,1-1,.133,3.568,3.568,0,0,1-.711-.07,3.788,3.788,0,0,0,3.535,2.629,7.582,7.582,0,0,1-4.7,1.621,7.666,7.666,0,0,1-.9-.055A10.571,10.571,0,0,0,7.2,19.5,10.7,10.7,0,0,0,17.972,8.727c0-.164,0-.328-.012-.488A7.7,7.7,0,0,0,19.847,6.277Z" transform="translate(417.586 7852)" fill="#000"/>
  </g>
</svg>
