<svg xmlns="http://www.w3.org/2000/svg" width="48" height="48" viewBox="0 0 48 48">
  <g id="Group_4081" data-name="Group 4081" transform="translate(-472 -7840)">
    <circle id="Ellipse_46" data-name="Ellipse 46" cx="24" cy="24" r="24" transform="translate(472 7840)" fill="#fff"/>
    <path id="Icon_ionic-logo-youtube" data-name="Icon ionic-logo-youtube" d="M19.866,7.812a3.036,3.036,0,0,0-2.89-3.172c-2.164-.1-4.371-.141-6.625-.141h-.7c-2.25,0-4.461.039-6.625.141A3.043,3.043,0,0,0,.137,7.82C.039,9.211,0,10.6,0,11.992s.039,2.781.133,4.176a3.047,3.047,0,0,0,2.887,3.183c2.273.105,4.605.152,6.976.148s4.7-.039,6.976-.148a3.047,3.047,0,0,0,2.89-3.183c.094-1.394.137-2.785.133-4.179S19.96,9.207,19.866,7.812ZM8.085,15.824V8.148l5.664,3.836Z" transform="translate(486.002 7852)" fill="#000"/>
  </g>
</svg>
